<?xml version="1.0" encoding="utf-8"?>
<!-- Generator: Adobe Illustrator 22.1.0, SVG Export Plug-In . SVG Version: 6.00 Build 0)  -->
<svg version="1.1" id="Capa_1" xmlns="http://www.w3.org/2000/svg" xmlns:xlink="http://www.w3.org/1999/xlink" x="0px" y="0px"
	 viewBox="0 0 28 28" style="enable-background:new 0 0 28 28;" xml:space="preserve">
<g>
	<path id="Facebook" d="M10.3,5.4c0,0.7,0,3.9,0,3.9H7.5V14h2.8v14h5.8V14H20c0,0,0.4-2.3,0.5-4.7c-0.5,0-4.4,0-4.4,0s0-2.7,0-3.2
		c0-0.5,0.6-1.1,1.3-1.1c0.6,0,1.9,0,3.2,0c0-0.6,0-2.9,0-4.9c-1.6,0-3.5,0-4.3,0C10.1,0,10.3,4.7,10.3,5.4z"/>
</g>
</svg>
