<?xml version="1.0" encoding="utf-8"?>
<!-- Generator: Adobe Illustrator 22.1.0, SVG Export Plug-In . SVG Version: 6.00 Build 0)  -->
<svg version="1.1" id="Capa_1" xmlns="http://www.w3.org/2000/svg" xmlns:xlink="http://www.w3.org/1999/xlink" x="0px" y="0px"
	 viewBox="0 0 28 28" style="enable-background:new 0 0 28 28;" xml:space="preserve">
<g>
	<path d="M3.6,0h20.8c2,0,3.6,1.5,3.6,3.6v20.8c0,2.1-1.6,3.6-3.6,3.6H3.6c-2,0-3.6-1.5-3.6-3.6V3.6C0,1.5,1.6,0,3.6,0L3.6,0z
		 M20.4,3.1c-0.7,0-1.3,0.6-1.3,1.3v3c0,0.7,0.6,1.3,1.3,1.3h3.2c0.7,0,1.3-0.6,1.3-1.3v-3c0-0.7-0.6-1.3-1.3-1.3H20.4L20.4,3.1z
		 M24.8,11.8h-2.5c0.2,0.8,0.4,1.6,0.4,2.4c0,4.7-3.9,8.4-8.7,8.4c-4.8,0-8.7-3.8-8.7-8.4c0-0.8,0.1-1.6,0.4-2.4H3.1v11.8
		c0,0.6,0.5,1.1,1.1,1.1h19.5c0.6,0,1.1-0.5,1.1-1.1L24.8,11.8L24.8,11.8z M14,8.5c-3.1,0-5.6,2.4-5.6,5.4s2.5,5.4,5.6,5.4
		c3.1,0,5.6-2.4,5.6-5.4S17.1,8.5,14,8.5z"/>
</g>
</svg>
