<?xml version="1.0" encoding="utf-8"?>
<!-- Generator: Adobe Illustrator 22.1.0, SVG Export Plug-In . SVG Version: 6.00 Build 0)  -->
<svg version="1.1" id="Capa_1" xmlns="http://www.w3.org/2000/svg" xmlns:xlink="http://www.w3.org/1999/xlink" x="0px" y="0px"
	 viewBox="0 0 28 28" style="enable-background:new 0 0 28 28;" xml:space="preserve">
<g>
	<rect x="0.4" y="9.4" width="6" height="17.9"/>
	<path d="M3.4,6.9L3.4,6.9C1.3,6.9,0,5.5,0,3.8C0,2,1.3,0.7,3.4,0.7c2.1,0,3.3,1.3,3.4,3.1C6.8,5.5,5.5,6.9,3.4,6.9z"/>
	<path d="M28,27.3h-6v-9.6c0-2.4-0.9-4.1-3-4.1c-1.7,0-2.6,1.1-3.1,2.2c-0.2,0.4-0.2,0.9-0.2,1.5v10h-6c0,0,0.1-16.3,0-17.9h6v2.5
		c0.8-1.2,2.2-3,5.4-3c4,0,6.9,2.6,6.9,8.1L28,27.3L28,27.3z"/>
	<path d="M15.6,12C15.7,11.9,15.7,11.9,15.6,12L15.6,12L15.6,12z"/>
</g>
</svg>
