<?xml version="1.0" encoding="utf-8"?>
<!-- Generator: Adobe Illustrator 22.1.0, SVG Export Plug-In . SVG Version: 6.00 Build 0)  -->
<svg version="1.1" id="Capa_1" xmlns="http://www.w3.org/2000/svg" xmlns:xlink="http://www.w3.org/1999/xlink" x="0px" y="0px"
	 viewBox="0 0 28 28" style="enable-background:new 0 0 28 28;" xml:space="preserve">
<g>
	<path id="Twitter__x28_alt_x29_" d="M24.8,12.9c1.6-0.1,2.6-0.8,3-1.8c-0.6,0.3-2.3,0.7-3.3,0.4c0-0.2-0.1-0.4-0.2-0.6
		c-0.7-2.7-3.3-4.9-5.9-4.6C18.7,6.1,18.9,6,19.1,6c0.3-0.1,2-0.4,1.7-1c-0.2-0.5-2.3,0.4-2.7,0.5c0.5-0.2,1.4-0.5,1.5-1.1
		c-0.8,0.1-1.6,0.5-2.2,1c0.2-0.2,0.4-0.5,0.4-0.8c-2.1,1.4-3.4,4.1-4.4,6.8c-0.8-0.8-1.5-1.4-2.1-1.7C9.6,8.7,7.5,7.7,4.2,6.5
		C4.1,7.6,4.7,9,6.6,10C6.2,9.9,5.4,10,4.8,10.2c0.2,1.3,1,2.3,3.1,2.8c-1,0.1-1.5,0.3-1.9,0.8c0.4,0.9,1.5,1.9,3.4,1.7
		c-2.1,0.9-0.9,2.6,0.9,2.4c-3,3.1-7.7,2.9-10.4,0.3c7.1,9.6,22.4,5.7,24.7-3.6c1.7,0,2.7-0.6,3.3-1.3C27,13.4,25.6,13.2,24.8,12.9z
		"/>
</g>
</svg>
